<?xml version="1.0" encoding="UTF-8"?><svg id="Layer_2" xmlns="http://www.w3.org/2000/svg" viewBox="0 0 374.26 60.02"><defs><style>.cls-1{fill:#053156;}.cls-2{fill:#1398b7;}.cls-3{fill:#0d7bd6;}</style></defs><g id="Layer_1-2"><g><path class="cls-1" d="m72.71,29.84c3.6-2.76,7.98-4.32,12.57-4.44.18,0,.37,0,.55,0,7.35,0,14.18,3.76,18.14,9.89,1.91-4.12,2.38-8.75,1.3-13.19-2.33-2.16-5.15-3.75-8.19-4.61-1.78-.5-3.63-.76-5.5-.76-2.33,0-4.61.39-6.78,1.17-2.1.75-4.05,1.84-5.79,3.24-1.73,1.39-3.21,3.04-4.41,4.9-.77,1.21-1.41,2.48-1.9,3.81Z"/><path class="cls-2" d="m105.81,51.5c-2.29,2.23-5.11,3.9-8.15,4.84-4.43-1.3-8.24-4.04-10.87-7.79,7.34-.37,14.08-4.46,17.78-10.86.09-.16.18-.32.27-.49,2.21-4.06,3.06-8.67,2.46-13.2,1.2,1.45,2.19,3.04,2.95,4.78,1.13,2.58,1.71,5.32,1.71,8.16s-.56,5.49-1.65,8.04c-1.06,2.45-2.57,4.65-4.5,6.52Z"/><path class="cls-3" d="m91.56,56.87c1.13,0,2.25-.09,3.36-.28-4.19-1.74-7.73-4.75-10.12-8.66-.1-.16-.19-.32-.28-.48-3.67-6.36-3.84-14.16-.51-20.65-4.52.4-8.77,2.32-12.08,5.47-.33,1.46-.5,2.96-.5,4.46,0,1.67.2,3.32.61,4.93.54,2.15,1.43,4.19,2.65,6.06,1.2,1.84,2.68,3.46,4.4,4.82,1.74,1.37,3.67,2.44,5.75,3.18,2.15.76,4.41,1.15,6.72,1.15Z"/><path class="cls-1" d="m29.05,10.23c-1.15-1.6-2.63-2.89-4.43-3.87s-3.98-1.46-6.53-1.46c-1.3,0-2.63.2-3.98.6-1.35.4-2.58,1.01-3.68,1.84-1.1.82-1.99,1.86-2.66,3.11-.68,1.25-1.01,2.73-1.01,4.43s.32,3.1.97,4.2c.65,1.1,1.51,2.04,2.58,2.82,1.07.78,2.3,1.41,3.67,1.91,1.37.5,2.81,1,4.3,1.5,1.85.6,3.7,1.25,5.58,1.95,1.87.7,3.56,1.61,5.05,2.74,1.5,1.13,2.72,2.55,3.67,4.28.95,1.73,1.42,3.92,1.42,6.57s-.51,4.94-1.52,6.87c-1.01,1.93-2.33,3.52-3.94,4.77-1.62,1.25-3.46,2.18-5.54,2.78-2.08.6-4.17.9-6.27.9-1.6,0-3.2-.16-4.8-.49-1.6-.33-3.13-.81-4.58-1.46-1.45-.65-2.8-1.48-4.05-2.48-1.25-1-2.35-2.15-3.3-3.45l4.65-3.45c1.15,1.9,2.76,3.49,4.84,4.77,2.08,1.28,4.52,1.91,7.32,1.91,1.35,0,2.73-.21,4.13-.64,1.4-.42,2.67-1.08,3.79-1.95,1.13-.88,2.05-1.95,2.78-3.23.72-1.28,1.09-2.76,1.09-4.47,0-1.85-.36-3.39-1.09-4.62-.73-1.23-1.69-2.25-2.89-3.08-1.2-.82-2.58-1.51-4.13-2.06-1.55-.55-3.18-1.1-4.88-1.65-1.75-.55-3.48-1.18-5.18-1.88-1.7-.7-3.23-1.61-4.58-2.74-1.35-1.13-2.44-2.51-3.27-4.17-.83-1.65-1.24-3.68-1.24-6.08,0-2.55.51-4.75,1.54-6.61,1.03-1.85,2.36-3.38,4.02-4.58,1.65-1.2,3.48-2.08,5.48-2.63,2-.55,3.98-.83,5.93-.83,3.6,0,6.68.64,9.23,1.91,2.55,1.28,4.48,2.79,5.78,4.54l-4.28,3.45Z"/><path class="cls-1" d="m43.08,25.47c.95-2.05,2.53-3.68,4.73-4.88,2.2-1.2,4.55-1.8,7.06-1.8,4.45,0,7.79,1.33,10.02,3.98,2.23,2.65,3.34,6.16,3.34,10.51v21.54h-5.1v-19.44c0-1.85-.15-3.53-.45-5.03-.3-1.5-.81-2.79-1.54-3.87-.73-1.07-1.7-1.91-2.93-2.51-1.23-.6-2.77-.9-4.62-.9-1.35,0-2.67.28-3.94.83-1.28.55-2.42,1.39-3.42,2.51-1,1.13-1.8,2.55-2.4,4.28-.6,1.73-.9,3.77-.9,6.12v18.02h-5.1V0h5.1v25.47h.15Z"/><path class="cls-1" d="m117.04,19.69l8.48,28.52h.15l9.46-28.52h4.95l9.61,28.52h.15l8.41-28.52h5.4l-11.11,35.13h-5.55l-9.38-28.45h-.15l-9.23,28.45h-5.55l-11.11-35.13h5.48Z"/><path class="cls-1" d="m193.3,10.23c-1.15-1.6-2.63-2.89-4.43-3.87-1.8-.98-3.98-1.46-6.53-1.46-1.3,0-2.63.2-3.98.6-1.35.4-2.58,1.01-3.68,1.84-1.1.82-1.99,1.86-2.66,3.11-.68,1.25-1.01,2.73-1.01,4.43s.32,3.1.97,4.2c.65,1.1,1.51,2.04,2.58,2.82,1.07.78,2.3,1.41,3.67,1.91,1.37.5,2.81,1,4.31,1.5,1.85.6,3.7,1.25,5.57,1.95,1.87.7,3.56,1.61,5.05,2.74,1.5,1.13,2.72,2.55,3.67,4.28.95,1.73,1.42,3.92,1.42,6.57s-.51,4.94-1.52,6.87c-1.01,1.93-2.33,3.52-3.94,4.77-1.62,1.25-3.46,2.18-5.54,2.78-2.08.6-4.17.9-6.27.9-1.6,0-3.2-.16-4.8-.49-1.6-.33-3.13-.81-4.58-1.46s-2.8-1.48-4.05-2.48c-1.25-1-2.35-2.15-3.3-3.45l4.65-3.45c1.15,1.9,2.76,3.49,4.84,4.77,2.08,1.28,4.52,1.91,7.32,1.91,1.35,0,2.73-.21,4.13-.64,1.4-.42,2.67-1.08,3.79-1.95,1.13-.88,2.05-1.95,2.78-3.23.73-1.28,1.09-2.76,1.09-4.47,0-1.85-.36-3.39-1.09-4.62-.73-1.23-1.69-2.25-2.89-3.08-1.2-.82-2.58-1.51-4.13-2.06-1.55-.55-3.18-1.1-4.88-1.65-1.75-.55-3.48-1.18-5.18-1.88-1.7-.7-3.23-1.61-4.58-2.74-1.35-1.13-2.44-2.51-3.27-4.17-.83-1.65-1.24-3.68-1.24-6.08,0-2.55.51-4.75,1.54-6.61,1.03-1.85,2.36-3.38,4.02-4.58,1.65-1.2,3.48-2.08,5.48-2.63,2-.55,3.98-.83,5.93-.83,3.6,0,6.68.64,9.23,1.91,2.55,1.28,4.48,2.79,5.78,4.54l-4.28,3.45Z"/><path class="cls-1" d="m235.12,36.21v1.13c0,.4-.03.83-.08,1.28h-29.13c.05,1.75.4,3.4,1.05,4.95.65,1.55,1.55,2.9,2.7,4.05,1.15,1.15,2.5,2.06,4.05,2.74s3.23,1.01,5.03,1.01c2.65,0,4.94-.61,6.87-1.84,1.93-1.23,3.39-2.64,4.39-4.24l3.83,3c-2.1,2.65-4.42,4.55-6.94,5.7-2.53,1.15-5.24,1.73-8.14,1.73-2.6,0-5.02-.46-7.24-1.39-2.23-.93-4.14-2.21-5.74-3.87-1.6-1.65-2.86-3.6-3.79-5.85-.93-2.25-1.39-4.7-1.39-7.36s.45-5.1,1.35-7.36c.9-2.25,2.15-4.2,3.75-5.86,1.6-1.65,3.48-2.94,5.63-3.87,2.15-.93,4.48-1.39,6.98-1.39,2.75,0,5.18.46,7.28,1.39,2.1.93,3.85,2.18,5.26,3.75,1.4,1.58,2.46,3.42,3.19,5.52.73,2.1,1.09,4.35,1.09,6.76Zm-5.18-1.65c-.15-3.3-1.21-6.04-3.19-8.22-1.98-2.18-4.79-3.26-8.44-3.26-1.7,0-3.28.31-4.73.94-1.45.63-2.73,1.48-3.83,2.55-1.1,1.08-1.98,2.3-2.63,3.68-.65,1.38-1.03,2.82-1.13,4.32h23.95Z"/><path class="cls-1" d="m272.05,36.21v1.13c0,.4-.03.83-.08,1.28h-29.13c.05,1.75.4,3.4,1.05,4.95.65,1.55,1.55,2.9,2.7,4.05,1.15,1.15,2.5,2.06,4.05,2.74s3.23,1.01,5.03,1.01c2.65,0,4.94-.61,6.87-1.84,1.93-1.23,3.39-2.64,4.39-4.24l3.83,3c-2.1,2.65-4.42,4.55-6.94,5.7-2.53,1.15-5.24,1.73-8.14,1.73-2.6,0-5.02-.46-7.24-1.39-2.23-.93-4.14-2.21-5.74-3.87-1.6-1.65-2.86-3.6-3.79-5.85-.93-2.25-1.39-4.7-1.39-7.36s.45-5.1,1.35-7.36c.9-2.25,2.15-4.2,3.75-5.86,1.6-1.65,3.48-2.94,5.63-3.87,2.15-.93,4.48-1.39,6.98-1.39,2.75,0,5.18.46,7.28,1.39,2.1.93,3.85,2.18,5.26,3.75,1.4,1.58,2.46,3.42,3.19,5.52.73,2.1,1.09,4.35,1.09,6.76Zm-5.18-1.65c-.15-3.3-1.21-6.04-3.19-8.22-1.98-2.18-4.79-3.26-8.44-3.26-1.7,0-3.28.31-4.73.94-1.45.63-2.73,1.48-3.83,2.55-1.1,1.08-1.98,2.3-2.63,3.68-.65,1.38-1.03,2.82-1.13,4.32h23.95Z"/><path class="cls-1" d="m279.25,35.53h.23l16.21-15.84h7.36l-17.72,16.06,19.52,19.07h-7.51l-17.87-18.47h-.23v18.47h-5.1V19.72h5.1v15.81Z"/><path class="cls-1" d="m335.85,36.21v1.13c0,.4-.03.83-.08,1.28h-29.13c.05,1.75.4,3.4,1.05,4.95.65,1.55,1.55,2.9,2.7,4.05,1.15,1.15,2.5,2.06,4.05,2.74s3.23,1.01,5.03,1.01c2.65,0,4.94-.61,6.87-1.84,1.93-1.23,3.39-2.64,4.39-4.24l3.83,3c-2.1,2.65-4.42,4.55-6.94,5.7-2.53,1.15-5.24,1.73-8.14,1.73-2.6,0-5.02-.46-7.24-1.39-2.23-.93-4.14-2.21-5.74-3.87-1.6-1.65-2.86-3.6-3.79-5.85-.93-2.25-1.39-4.7-1.39-7.36s.45-5.1,1.35-7.36c.9-2.25,2.15-4.2,3.75-5.86,1.6-1.65,3.48-2.94,5.63-3.87,2.15-.93,4.48-1.39,6.98-1.39,2.75,0,5.18.46,7.28,1.39,2.1.93,3.85,2.18,5.26,3.75,1.4,1.58,2.46,3.42,3.19,5.52.73,2.1,1.09,4.35,1.09,6.76Zm-5.18-1.65c-.15-3.3-1.21-6.04-3.19-8.22-1.98-2.18-4.79-3.26-8.44-3.26-1.7,0-3.28.31-4.73.94-1.45.63-2.73,1.48-3.83,2.55-1.1,1.08-1.98,2.3-2.63,3.68-.65,1.38-1.03,2.82-1.13,4.32h23.95Z"/><path class="cls-1" d="m339.23,23.75c-.05-1.5-.13-2.85-.23-4.05h4.88c.1.95.17,2,.23,3.15.05,1.15.08,2.1.08,2.85h.15c1-2.05,2.5-3.72,4.5-4.99,2-1.28,4.25-1.91,6.76-1.91.65,0,1.24.03,1.76.08.53.05,1.06.15,1.61.3l-.68,4.88c-.3-.1-.8-.2-1.5-.3-.7-.1-1.4-.15-2.1-.15-1.35,0-2.65.25-3.9.75-1.25.5-2.34,1.29-3.27,2.36-.93,1.07-1.68,2.45-2.25,4.12-.58,1.67-.86,3.68-.86,6.03v17.97h-5.1v-27.4c0-.95-.03-2.18-.08-3.68Z"/><path class="cls-1" d="m362.24,16.33c0-.83.16-1.6.47-2.33.32-.73.75-1.36,1.29-1.9.55-.54,1.18-.96,1.91-1.28.73-.32,1.51-.47,2.33-.47s1.6.16,2.33.47c.73.32,1.37.74,1.91,1.28.55.54.98,1.17,1.29,1.9.32.73.47,1.51.47,2.33s-.16,1.6-.47,2.32c-.32.72-.75,1.35-1.29,1.89-.55.54-1.18.96-1.91,1.27-.73.31-1.51.46-2.33.46s-1.6-.15-2.33-.46c-.73-.31-1.37-.73-1.91-1.27-.55-.54-.98-1.16-1.29-1.89-.32-.72-.47-1.49-.47-2.32Zm.95,0c0,.69.13,1.34.4,1.95.26.62.62,1.16,1.08,1.62.46.47.99.83,1.61,1.09s1.27.4,1.98.4,1.36-.13,1.98-.4c.62-.26,1.15-.63,1.61-1.09.46-.47.82-1.01,1.08-1.62.26-.62.4-1.27.4-1.95s-.13-1.36-.4-1.98c-.26-.61-.62-1.15-1.08-1.61-.46-.46-.99-.82-1.61-1.08-.62-.26-1.27-.4-1.98-.4s-1.36.13-1.98.4c-.62.26-1.15.62-1.61,1.08-.46.46-.82.99-1.08,1.61-.26.62-.4,1.28-.4,1.98Zm2.72-3.4h2.37c.32,0,.62.04.92.11.3.07.57.18.8.34.24.16.43.36.57.61.14.25.21.55.21.92,0,.49-.14.89-.42,1.2-.28.31-.66.51-1.13.62l1.82,2.95h-1.48l-1.58-2.82h-.87v2.82h-1.21v-6.75Zm2.19,2.95c.35,0,.69-.07,1-.2.32-.13.47-.4.47-.8,0-.37-.14-.62-.43-.74-.29-.12-.59-.18-.91-.18h-1.11v1.92h.98Z"/></g></g></svg>